<svg width="128" height="128" viewBox="0 0 128 128" fill="none" xmlns="http://www.w3.org/2000/svg">
<rect width="128" height="128" rx="32" fill="#F5C888"/>
<path d="M104.943 60.3897L99.6093 55.0564C99.4856 54.9326 99.3386 54.8343 99.1768 54.7673C99.0151 54.7003 98.8417 54.6658 98.6666 54.6658C98.4915 54.6658 98.3182 54.7003 98.1564 54.7673C97.9947 54.8343 97.8477 54.9326 97.7239 55.0564L92.3906 60.3897C92.2667 60.5135 92.1685 60.6604 92.1015 60.8222C92.0345 60.9839 92 61.1573 92 61.3324V74.6657C92 74.8408 92.0344 75.0142 92.1014 75.176C92.1684 75.3378 92.2666 75.4848 92.3904 75.6086C92.5142 75.7325 92.6612 75.8307 92.823 75.8977C92.9848 75.9647 93.1582 75.9991 93.3333 75.9991H104C104.175 75.9991 104.349 75.9647 104.51 75.8977C104.672 75.8307 104.819 75.7325 104.943 75.6086C105.067 75.4848 105.165 75.3378 105.232 75.176C105.299 75.0142 105.333 74.8408 105.333 74.6657V61.3324C105.333 61.1573 105.299 60.9839 105.232 60.8222C105.165 60.6604 105.067 60.5135 104.943 60.3897Z" fill="#292D3E"/>
<path d="M81.3333 43.999H41.3333C41.1582 43.999 40.9848 44.0334 40.823 44.1004C40.6612 44.1674 40.5142 44.2656 40.3904 44.3894C40.2666 44.5133 40.1684 44.6603 40.1014 44.8221C40.0344 44.9838 40 45.1572 40 45.3324V65.3324C39.9999 65.5861 40.0723 65.8346 40.2086 66.0487C40.345 66.2627 40.5396 66.4334 40.7695 66.5407L60.7695 75.874C60.9461 75.9564 61.1385 75.999 61.3333 75.999C61.5281 75.999 61.7206 75.9564 61.8971 75.874L81.8971 66.5407C82.1271 66.4334 82.3217 66.2627 82.458 66.0487C82.5943 65.8346 82.6667 65.5861 82.6667 65.3324V45.3324C82.6667 45.1572 82.6323 44.9838 82.5653 44.8221C82.4983 44.6603 82.4001 44.5133 82.2762 44.3894C82.1524 44.2656 82.0054 44.1674 81.8436 44.1004C81.6818 44.0334 81.5084 43.999 81.3333 43.999Z" fill="#292D3E"/>
<path d="M81.3333 43.999H41.3333C41.1582 43.999 40.9848 44.0334 40.823 44.1004C40.6612 44.1674 40.5142 44.2656 40.3904 44.3894C40.2666 44.5133 40.1684 44.6603 40.1014 44.8221C40.0344 44.9838 40 45.1572 40 45.3324V58.182L60.7695 67.874C60.9461 67.9564 61.1385 67.999 61.3333 67.999C61.5281 67.999 61.7206 67.9564 61.8971 67.874L82.6667 58.1819V45.3324C82.6667 45.1572 82.6323 44.9838 82.5653 44.8221C82.4983 44.6603 82.4001 44.5133 82.2762 44.3894C82.1524 44.2656 82.0054 44.1674 81.8436 44.1004C81.6818 44.0334 81.5084 43.999 81.3333 43.999Z" fill="#292D3E"/>
<path d="M99.2279 38.7894L61.8946 21.4561C61.7186 21.375 61.5271 21.333 61.3334 21.333C61.1396 21.333 60.9481 21.375 60.7722 21.4561L23.4388 38.7894C23.2082 38.8964 23.013 39.0672 22.8762 39.2815C22.7394 39.4958 22.6667 39.7448 22.6667 39.999C22.6667 40.2533 22.7394 40.5022 22.8762 40.7166C23.013 40.9309 23.2082 41.1016 23.4388 41.2087L60.7722 58.542C60.948 58.6235 61.1395 58.6657 61.3334 58.6657C61.5272 58.6657 61.7187 58.6235 61.8946 58.542L99.2279 41.2087C99.4585 41.1016 99.6537 40.9309 99.7905 40.7166C99.9273 40.5022 100 40.2533 100 39.999C100 39.7448 99.9273 39.4958 99.7905 39.2815C99.6537 39.0672 99.4585 38.8964 99.2279 38.7894Z" fill="#292D3E"/>
<path d="M98.6667 51.9991C98.4916 51.9991 98.3182 51.9647 98.1564 51.8977C97.9946 51.8307 97.8476 51.7325 97.7238 51.6087C97.5999 51.4849 97.5017 51.3379 97.4347 51.1761C97.3677 51.0143 97.3333 50.8409 97.3333 50.6658V41.3324H61.3333C60.9797 41.3324 60.6406 41.192 60.3905 40.9419C60.1405 40.6919 60 40.3527 60 39.9991C60 39.6455 60.1405 39.3063 60.3905 39.0563C60.6406 38.8062 60.9797 38.6658 61.3333 38.6658H98.6667C98.8418 38.6657 99.0152 38.7002 99.177 38.7672C99.3388 38.8342 99.4858 38.9324 99.6096 39.0562C99.7334 39.18 99.8316 39.327 99.8986 39.4888C99.9656 39.6506 100 39.824 100 39.9991V50.6658C100 50.8409 99.9656 51.0143 99.8986 51.1761C99.8316 51.3379 99.7334 51.4849 99.6096 51.6087C99.4858 51.7325 99.3388 51.8307 99.177 51.8977C99.0152 51.9647 98.8418 51.9991 98.6667 51.9991Z" fill="#292D3E"/>
<path d="M98.6666 59.9991C101.612 59.9991 104 57.6112 104 54.6657C104 51.7202 101.612 49.3324 98.6666 49.3324C95.7211 49.3324 93.3333 51.7202 93.3333 54.6657C93.3333 57.6112 95.7211 59.9991 98.6666 59.9991Z" fill="#292D3E"/>
<path d="M87.6973 101.286C85.9115 100.799 84 96.4144 84 90.6657C84 84.917 85.9115 80.5329 87.6973 80.046C88.0254 79.9564 88.3069 79.7448 88.4842 79.4546C88.6615 79.1643 88.7212 78.8173 88.6511 78.4845C88.581 78.1517 88.3864 77.8582 88.1071 77.6642C87.8278 77.4701 87.4849 77.3901 87.1485 77.4405L61.3333 81.3181L35.5098 77.4392L34.8561 77.3454C34.7934 77.3366 34.73 77.3322 34.6667 77.3324C30.8659 77.3324 28 83.0642 28 90.6657C28 98.2673 30.8659 103.999 34.6667 103.999C34.73 103.999 34.7934 103.995 34.8561 103.986L61.3333 100.013L87.1484 103.891C87.4848 103.941 87.8277 103.861 88.107 103.667C88.3863 103.473 88.5809 103.18 88.651 102.847C88.7212 102.514 88.6615 102.167 88.4842 101.877C88.3069 101.587 88.0254 101.375 87.6973 101.286Z" fill="#292D3E"/>
<path d="M66.6666 78.6658H56C55.293 78.6666 54.6152 78.9478 54.1153 79.4477C53.6153 79.9476 53.3341 80.6254 53.3333 81.3324V105.332C53.3333 105.55 53.3868 105.765 53.4889 105.957C53.5911 106.15 53.7388 106.314 53.9193 106.437C54.0997 106.559 54.3073 106.635 54.524 106.658C54.7407 106.682 54.9597 106.652 55.1621 106.571L61.3333 104.102L67.5045 106.571C67.7069 106.652 67.926 106.682 68.1426 106.658C68.3593 106.635 68.5669 106.559 68.7474 106.437C68.9278 106.314 69.0756 106.15 69.1777 105.957C69.2798 105.765 69.3333 105.55 69.3333 105.332V81.3324C69.3325 80.6254 69.0513 79.9476 68.5514 79.4477C68.0514 78.9478 67.3736 78.6666 66.6666 78.6658Z" fill="#292D3E"/>
<path d="M88 77.3324C87.9366 77.3322 87.8733 77.3366 87.8105 77.3454L87.1569 77.4392C87.1024 77.4472 87.0485 77.4585 86.9954 77.473C83.6614 78.3832 81.3333 83.8077 81.3333 90.6657C81.3333 97.5238 83.6614 102.948 86.9954 103.858C87.0485 103.873 87.1024 103.884 87.1569 103.892L87.8105 103.986C87.8733 103.995 87.9366 103.999 88 103.999C91.8008 103.999 94.6666 98.2673 94.6666 90.6657C94.6666 83.0642 91.8008 77.3324 88 77.3324Z" fill="#292D3E"/>
<path d="M85.3333 89.3324H81.3645C81.3447 89.7704 81.3333 90.2145 81.3333 90.6657C81.3333 97.5238 83.6614 102.948 86.9954 103.858C87.0485 103.873 87.1024 103.884 87.1569 103.892L87.8105 103.986C87.8733 103.995 87.9366 103.999 88 103.999C88.4558 103.997 88.9075 103.913 89.3333 103.751V93.3324C89.3322 92.2719 88.9104 91.2551 88.1605 90.5052C87.4106 89.7554 86.3938 89.3336 85.3333 89.3324Z" fill="#292D3E"/>
</svg>
